<mxfile host="app.diagrams.net" agent="Mozilla/5.0 (Macintosh; Intel Mac OS X 10_15_7) AppleWebKit/537.36 (KHTML, like Gecko) Chrome/135.0.0.0 Safari/537.36" version="28.0.6">
  <diagram id="h2MtayDcG-n8w6ygHaxo" name="Page-1">
    <mxGraphModel dx="1186" dy="767" grid="1" gridSize="10" guides="1" tooltips="1" connect="1" arrows="1" fold="1" page="1" pageScale="1" pageWidth="827" pageHeight="1169" math="0" shadow="0">
      <root>
        <mxCell id="0" />
        <mxCell id="1" parent="0" />
        <mxCell id="2Fsp9-fTSzHRH5NCl5Ru-18" value="" style="edgeStyle=orthogonalEdgeStyle;rounded=0;orthogonalLoop=1;jettySize=auto;html=1;" edge="1" parent="1" source="2" target="3">
          <mxGeometry relative="1" as="geometry" />
        </mxCell>
        <mxCell id="2" value="Start" style="whiteSpace=wrap;strokeWidth=2;fillColor=light-dark(#000000,#009999);strokeColor=default;rounded=0;" parent="1" vertex="1">
          <mxGeometry x="263" y="180" width="95" height="54" as="geometry" />
        </mxCell>
        <mxCell id="3" value="Agent" style="whiteSpace=wrap;strokeWidth=2;gradientColor=light-dark(#000000,#EA6B66);fillColor=light-dark(#FFFFFF,#F8CECC);rounded=0;" parent="1" vertex="1">
          <mxGeometry x="260" y="284" width="101" height="54" as="geometry" />
        </mxCell>
        <mxCell id="4" value="Booking Tool" style="whiteSpace=wrap;strokeWidth=2;fillColor=light-dark(#0050EF,#009999);fontColor=#ffffff;strokeColor=#001DBC;gradientColor=light-dark(#000000,#004C99);rounded=0;" parent="1" vertex="1">
          <mxGeometry x="426" y="202" width="196" height="54" as="geometry" />
        </mxCell>
        <mxCell id="5" value="Cancellation Tool" style="whiteSpace=wrap;strokeWidth=2;gradientColor=light-dark(#000000,#370A1C);fillColor=light-dark(#000000,#6947C5);rounded=0;" parent="1" vertex="1">
          <mxGeometry x="426" y="284" width="200.5" height="54" as="geometry" />
        </mxCell>
        <mxCell id="6" value="Query Handling Tool" style="whiteSpace=wrap;strokeWidth=2;gradientColor=light-dark(#000000,#994C00);fillColor=light-dark(#FFFFFF,#FFD713);rounded=0;" parent="1" vertex="1">
          <mxGeometry x="426" y="362" width="204" height="54" as="geometry" />
        </mxCell>
        <mxCell id="7" value="End" style="whiteSpace=wrap;strokeWidth=2;strokeColor=default;fillColor=light-dark(#FFFFFF,#D5B155);rounded=0;" parent="1" vertex="1">
          <mxGeometry x="267.5" y="392" width="86" height="54" as="geometry" />
        </mxCell>
        <mxCell id="2Fsp9-fTSzHRH5NCl5Ru-16" value="" style="curved=1;startArrow=none;endArrow=block;exitX=0.5;exitY=1;entryX=0.5;entryY=0;rounded=0;" edge="1" parent="1">
          <mxGeometry relative="1" as="geometry">
            <Array as="points" />
            <mxPoint x="310" y="342" as="sourcePoint" />
            <mxPoint x="310" y="392" as="targetPoint" />
          </mxGeometry>
        </mxCell>
        <mxCell id="2Fsp9-fTSzHRH5NCl5Ru-20" value="" style="endArrow=classic;startArrow=classic;html=1;rounded=0;" edge="1" parent="1">
          <mxGeometry width="50" height="50" relative="1" as="geometry">
            <mxPoint x="361" y="284" as="sourcePoint" />
            <mxPoint x="422" y="222" as="targetPoint" />
          </mxGeometry>
        </mxCell>
        <mxCell id="2Fsp9-fTSzHRH5NCl5Ru-21" value="" style="endArrow=classic;startArrow=classic;html=1;rounded=0;" edge="1" parent="1">
          <mxGeometry width="50" height="50" relative="1" as="geometry">
            <mxPoint x="361" y="338" as="sourcePoint" />
            <mxPoint x="422" y="402" as="targetPoint" />
          </mxGeometry>
        </mxCell>
        <mxCell id="2Fsp9-fTSzHRH5NCl5Ru-22" value="" style="endArrow=classic;startArrow=classic;html=1;rounded=0;" edge="1" parent="1">
          <mxGeometry width="50" height="50" relative="1" as="geometry">
            <mxPoint x="358" y="310.5" as="sourcePoint" />
            <mxPoint x="428" y="310.5" as="targetPoint" />
            <Array as="points">
              <mxPoint x="398" y="310.5" />
            </Array>
          </mxGeometry>
        </mxCell>
      </root>
    </mxGraphModel>
  </diagram>
</mxfile>
